Coordinates
version=1
nRows=17
nColumns=33
inDegrees=yes

Units are S.I. units (second, meters, Newtons, ...)
Angles are in degrees.

endheader
time	ground_thorax_rot_x	ground_thorax_rot_y	ground_thorax_rot_z	ground_thorax_tx	ground_thorax_ty	ground_thorax_tz	clav_prot_r	clav_elev_r	scapula_abduction_r	scapula_elevation_r	scapula_upward_rot_r	scapula_winging_r	shoulder_elv_r	plane_of_elev_r	axial_rot_r	elbow_flexion_r	pro_sup_r	wrist_flex_r	wrist_dev_r	clav_prot_l	clav_elev_l	scapula_abduction_l	scapula_elevation_l	scapula_upward_rot_l	scapula_winging_l	shoulder_elv_l	plane_of_elev_l	axial_rot_l	elbow_flexion_l	pro_sup_l	wrist_flex_l	wrist_dev_l
      5.31000000	      2.27787945	      2.30637433	     10.57558628	     -0.10810578	      1.03650489	      0.03110312	      6.78615124	     10.02542889	     24.26236486	      5.51858131	     24.21410860	    -12.54496105	     27.88870880	    -71.35959663	     67.33024205	     63.92501644	    -31.41562445	     70.00000021	    -24.99999983	     14.48762182	     -8.26074447	    -21.94338346	    -16.89237188	    -41.96173387	      2.34333566	     66.97848190	    -31.92418909	     -3.21944826	     70.14239249	     11.55902123	     10.19024428	    -21.90774242
      5.32000000	      2.37860553	      2.25378796	     10.35712398	     -0.10750572	      1.03648709	      0.03101646	      7.02288897	     10.00072023	     24.98959044	      5.38598839	     24.54158924	    -12.81333609	     28.38667139	    -71.29675788	     66.75708279	     64.86075207	    -33.04112578	     67.81009014	    -24.99999983	     14.64654005	     -8.44528251	    -22.01826484	    -16.39469626	    -41.25608791	      2.47712268	     66.90443254	    -30.85035636	     -2.83697580	     69.61995074	     10.54084202	     13.03802161	    -19.10687780
      5.33000000	      2.33223767	      2.14547575	     10.29730984	     -0.10695359	      1.03648814	      0.03093918	      7.17885702	      9.93496806	     25.55273985	      5.23205399	     24.84344557	    -13.02073565	     28.93288691	    -71.05992238	     66.10755638	     65.65548191	    -32.96292475	     64.69738935	    -24.99999983	     14.89020618	     -8.79423408	    -22.27894713	    -15.82336093	    -40.72636842	      2.66830971	     67.05036887	    -30.13831040	     -2.57635100	     69.09067845	      9.61883239	     15.22206674	    -16.88376111
      5.34000000	      2.31434469	      2.02437959	     10.04797102	     -0.10618759	      1.03629453	      0.03079852	      7.21735402	      9.90212148	     26.04344303	      5.05255037	     25.32881531	    -13.21462828	     29.44408903	    -70.78295275	     65.33516648	     66.48944274	    -32.85611293	     61.70782436	    -24.99999983	     15.09809056	     -9.01254604	    -22.45482320	    -15.29784573	    -40.03727133	      2.83685752	     67.03819290	    -29.11074128	     -2.31173783	     68.18737970	      8.96338252	     16.42886559	    -15.49078839
      5.35000000	      2.15949399	      1.86271561	     10.03398439	     -0.10578445	      1.03643054	      0.03044007	      7.38993326	      9.69021895	     26.71934007	      4.76162534	     25.68946002	    -13.44780015	     29.75688398	    -70.40710040	     64.53930362	     66.98153716	    -32.70422339	     57.34523188	    -24.99999983	     15.41102344	     -9.29374799	    -22.80313607	    -14.68964042	    -39.30243051	      3.09370861	     66.92162992	    -28.31109994	     -2.10277371	     67.03895830	      7.99517461	     18.01116856	    -13.78364689
      5.36000000	      2.06347744	      1.74402599	      9.98601154	     -0.10530654	      1.03629194	      0.02998194	      7.50384925	      9.58910219	     27.31296280	      4.54672615	     26.11576562	    -13.66637454	     30.04254458	    -69.93232426	     63.66307069	     67.32753482	    -31.88380500	     52.94164993	    -24.99999983	     15.73472285	     -9.52323539	    -23.16598788	    -14.09462770	    -38.49630647	      3.36248708	     66.69637553	    -27.26884441	     -2.01329261	     65.56500981	      6.93381282	     19.46611461	    -12.14788919
      5.37000000	      1.82289171	      1.56836224	      9.97766565	     -0.10489582	      1.03633741	      0.02938447	      7.64696037	      9.22587854	     27.96592278	      4.13588309	     26.48002684	    -13.86850407	     30.06928529	    -69.26466537	     62.81216893	     67.27159298	    -31.50104330	     48.83641089	    -24.99999983	     16.08930809	     -9.83927324	    -23.59370521	    -13.43623566	    -37.72691042	      3.64897939	     66.57828468	    -26.43032705	     -1.90903686	     63.97314543	      5.94076765	     20.57101383	    -10.85916619
      5.38000000	      1.69924685	      1.45769060	     10.00302241	     -0.10443311	      1.03653439	      0.02859555	      7.83297186	      8.76499728	     28.58966562	      3.68981538	     26.69705909	    -14.04598059	     30.24811703	    -68.34319875	     62.56256623	     66.46678485	    -31.62197138	     48.17375158	    -24.99999983	     16.38423657	    -10.48140423	    -23.93493422	    -12.58183699	    -37.16478902	      3.82435829	     66.80947445	    -25.62591519	     -2.19514742	     62.14595568	      5.98933490	     20.71274775	    -10.42162533
      5.39000000	      1.48149646	      1.18271469	      9.91477507	     -0.10389282	      1.03583254	      0.02776738	      7.95796437	      8.63468797	     29.44071999	      3.37586483	     27.41058050	    -14.34735653	     29.72645641	    -67.25183782	     62.19910117	     65.89933437	    -32.89286284	     43.99393786	    -24.99999983	     16.67518409	    -10.35194390	    -24.24730989	    -12.15974136	    -36.03363824	      4.12745223	     66.02519500	    -24.20995470	     -1.84734093	     59.78190126	      4.79486407	     22.16603487	     -9.15028346
      5.40000000	      1.29767666	      1.19001291	      9.94564094	     -0.10358510	      1.03546401	      0.02704464	      8.14088960	      8.20652715	     30.01446348	      2.96913448	     27.60082417	    -14.49930520	     29.44019659	    -66.23980008	     61.24179685	     65.14309097	    -33.21979787	     40.22198801	    -24.99999983	     17.22193643	    -10.87107492	    -24.98017640	    -11.21470806	    -35.05896045	      4.54683878	     65.71338090	    -23.32199568	     -2.01131683	     57.36943263	      3.27256165	     23.71656667	     -7.73778789
      5.41000000	      1.00896338	      0.92820471	      9.94275481	     -0.10314145	      1.03506301	      0.02590647	      8.35957068	      7.65427416	     30.83607900	      2.40630952	     27.99577768	    -14.71941625	     29.07162629	    -64.61833397	     61.56135888	     63.21739127	    -33.81745321	     38.62837741	    -24.99999983	     17.54067914	    -11.24668140	    -25.38956790	    -10.54241731	    -34.36997599	      4.77511559	     65.54616378	    -22.27796208	     -1.92555828	     54.92253458	      2.93863248	     24.06278891	     -7.06275821
      5.42000000	      0.80385882	      0.80239303	      9.92668018	     -0.10267583	      1.03439285	      0.02496967	      8.53731982	      7.20233925	     31.55145266	      1.93066655	     28.38423269	    -14.90921658	     28.48755164	    -63.03312230	     61.74434398	     61.34726281	    -35.56479186	     36.58815666	    -24.99999983	     17.91759901	    -11.58877089	    -25.87981602	     -9.79515850	    -33.46339999	      5.06902878	     65.12491010	    -21.01304699	     -1.86797318	     51.96986206	      2.25852697	     24.89129820	     -6.27269662
      5.43000000	      0.52921017	      0.60920497	      9.88965653	     -0.10223447	      1.03365483	      0.02366712	      8.79132329	      6.63093489	     32.41095258	      1.36200515	     28.77140242	    -15.12552352	     27.85065296	    -61.15719120	     62.42218588	     58.75634745	    -37.25011780	     35.18778013	    -24.99999983	     18.30316662	    -11.98205812	    -26.40576337	     -9.06627101	    -32.68667392	      5.34445638	     64.81484415	    -19.89082907	     -1.79620403	     49.13255050	      1.89850068	     25.47788788	     -5.66552407
      5.44000000	      0.39284088	      0.58469673	      9.80798452	     -0.10159431	      1.03273012	      0.02265070	      8.80452647	      6.35478477	     32.92427432	      0.99437298	     29.32395068	    -15.25123696	     26.66729574	    -59.13424148	     63.24031118	     56.02016293	    -41.08050645	     34.42040994	    -24.99999983	     18.76921083	    -12.38682242	    -27.06018505	     -8.25210708	    -31.75619412	      5.69236912	     64.18746748	    -18.45141025	     -1.47031072	     45.70278223	      1.30359533	     26.52856693	     -5.05331318
      5.45000000	      0.20430281	      0.47031749	      9.73221779	     -0.10107802	      1.03189453	      0.02137282	      8.78824285	      6.12201652	     33.57691437	      0.60346802	     30.11987409	    -15.42408142	     24.83136006	    -56.59872346	     65.32770248	     51.89039724	    -45.75640817	     35.52704844	    -24.99999983	     19.27815456	    -12.80635108	    -27.80960642	     -7.52655147	    -31.03978521	      6.06151956	     63.61250952	    -16.97388589	     -0.82988295	     42.29079718	      1.28356731	     27.13447016	     -4.68588868
      5.46000000	     -0.11498074	      0.66216288	      9.94046939	     -0.10127686	      1.03098839	      0.01982466	      8.59405092	      6.59435478	     34.49859887	      0.59152836	     31.72349301	    -15.79402502	     19.35113176	    -53.11863613	     70.02699407	     43.85212475	    -56.60791828	     43.08209937	    -24.99958729	     20.19936565	    -13.34185190	    -29.25223376	     -6.83733456	    -30.63787773	      6.75597779	     63.34981254	    -15.59290890	     -0.90392042	     39.01487256	      2.32494373	     27.93656176	     -5.07982368
      5.47000000	     -3.20218488	      0.53687817	      9.61007080	     -0.10223589	      1.03019992	      0.00737049	     14.11447394	    -12.72236238	     32.68109016	    -10.79578726	     15.12649446	     -8.61311803	    -13.74409780	    -65.90897717	    122.82092432	    -61.07754047	   -164.31072453	      4.06202082	      9.01460328	     21.81423203	     -9.97767022	    -32.23995753	     -8.53000007	    -28.12498639	      9.34404413	     60.11292916	    -12.59711586	      0.92656271	     36.03605719	      4.05019821	     27.67792428	     -4.18350291
